name C:\Users\tom_v\MusculoskeletalSpecialization_revisited\Results\Case_17\motion.mot
datacolumns 32
datarows 16
range 0.00000000 0.08434775
endheader 
time	pelvis_tilt	pelvis_list	pelvis_rotation	pelvis_tx	pelvis_ty	pelvis_tz	hip_flexion_r	hip_adduction_r	hip_rotation_r	knee_angle_r	ankle_angle_r	subtalar_angle_r	mtp_angle_r	hip_flexion_l	hip_adduction_l	hip_rotation_l	knee_angle_l	ankle_angle_l	subtalar_angle_l	mtp_angle_l	lumbar_extension	lumbar_bending	lumbar_rotation	arm_flex_r	arm_add_r	arm_rot_r	elbow_flex_r	arm_flex_l	arm_add_l	arm_rot_l	elbow_flex_l	
          0.00000000	        -10.71592394	         -2.60334824	          0.56012790	          0.00000000	          0.88694732	          0.00138295	         44.67373476	          7.26470653	          2.79620968	        -41.94571459	          7.17670365	         -1.81840480	         -0.20229976	          1.42558364	         -2.23088948	          4.06627536	        -53.08295967	         -9.39224487	         18.66695609	         18.81031090	         -0.83153092	          4.48854957	         -3.37207630	         -7.53997451	         -5.18871829	         -1.55410160	         64.61657515	         13.14927281	         -1.01452319	         12.94491747	          3.41513716	
          0.00562318	        -10.65288606	         -2.53487669	          0.67288972	          0.01960892	          0.88400318	          0.00181408	         43.86745788	          7.61951576	          3.39087727	        -43.23833642	          9.50765296	         -2.32877880	          0.34475264	          2.48315040	         -2.27087614	          3.82772351	        -55.19572797	         -8.21472807	         18.47261148	         17.48449975	         -0.71430430	          4.40037688	         -3.22018452	         -6.99281320	         -5.18032557	         -1.13376293	         62.60278055	         12.65810830	         -1.20970307	         12.57083843	          4.70128675	
          0.01124637	        -10.59449884	         -2.46918713	          0.78441391	          0.03913095	          0.88105316	          0.00223472	         42.91763297	          7.96754877	          3.98095725	        -44.45085005	         11.99649103	         -2.73815191	          1.33429515	          3.63589472	         -2.30938589	          3.57372565	        -57.32644990	         -7.00171527	         18.20781825	         16.24905360	         -0.60260065	          4.31136548	         -3.05729212	         -6.37342816	         -5.16807358	         -0.66797933	         60.43071068	         12.08789099	         -1.43579423	         12.10522518	          6.25977575	
          0.01686955	        -10.54396677	         -2.40310154	          0.88352556	          0.05845823	          0.87822600	          0.00265278	         41.88195925	          8.30073060	          4.52895326	        -45.45735683	         14.27197802	         -3.17556329	          2.43897141	          4.89057151	         -2.33234979	          3.31873502	        -59.45895702	         -5.77779830	         17.87222260	         15.09833655	         -0.51020624	          4.21755151	         -2.87744187	         -5.65222633	         -5.14988466	         -0.14356485	         58.06929468	         11.44611324	         -1.69002538	         11.53721536	          8.10149963	
          0.02249273	        -10.50205739	         -2.33603005	          0.96881174	          0.07753350	          0.87561350	          0.00306961	         40.83224257	          8.61695399	          5.03203646	        -46.36920501	         16.32850532	         -3.59660225	          3.60060876	          6.24405685	         -2.33701319	          3.06770299	        -61.56786044	         -4.55315004	         17.47249947	         14.02483728	         -0.44517141	          4.11756775	         -2.68433203	         -4.81209012	         -5.12200202	          0.44960031	         55.50043524	         10.73630445	         -1.96787065	         10.86625912	         10.22736931	
          0.02811592	        -10.46900685	         -2.26370191	          1.03934610	          0.09634843	          0.87328181	          0.00348224	         39.79392795	          8.90672089	          5.48468719	        -47.21368885	         18.06630065	         -3.99612610	          4.85898077	          7.68469738	         -2.31904388	          2.81851366	        -63.62050099	         -3.33013871	         17.01237584	         13.02291011	         -0.40878630	          4.00641108	         -2.48047051	         -3.84846297	         -5.07947689	          1.11702576	         52.71622055	          9.95929893	         -2.26256649	         10.10289909	         12.62714975	
          0.03373910	        -10.44458211	         -2.18073356	          1.09491387	          0.11492248	          0.87127572	          0.00388415	         38.75962663	          9.15744914	          5.88493479	        -47.97661634	         19.45882195	         -4.36516420	          6.25479407	          9.19783824	         -2.27370651	          2.56679978	        -65.58500364	         -2.10971004	         16.49830998	         12.08846228	         -0.39894408	          3.87833896	         -2.26755109	         -2.76606148	         -5.01679348	          1.86004119	         49.71969218	          9.11634216	         -2.56607242	          9.26569000	         15.28090662	
          0.03936229	        -10.42846107	         -2.08346424	          1.13602366	          0.13328916	          0.86962033	          0.00426823	         37.70831283	          9.35865643	          6.23747187	        -48.63392832	         20.56879102	         -4.67742142	          7.77753563	         10.76876820	         -2.19918882	          2.30703749	        -67.43418685	         -0.89287974	         15.93767422	         11.21727721	         -0.41167983	          3.72981043	         -2.04724434	         -1.57627648	         -4.92850950	          2.67687051	         46.52469025	          8.21064223	         -2.87010927	          8.37737704	         18.16029136	
          0.04498547	        -10.42026224	         -1.96904603	          1.16291535	          0.15148360	          0.86832499	          0.00462865	         36.62047874	          9.50245618	          6.54932858	        -49.16323555	         21.45511052	         -4.91387282	          9.41390503	         12.38444681	         -2.09464443	          2.03429169	        -69.14866163	          0.31977071	         15.33711858	         10.40560374	         -0.44301314	          3.55836455	         -1.82056429	         -0.29464999	         -4.80936051	          3.56281788	         43.15466775	          7.24856992	         -3.16726017	          7.46146688	         21.23060108	
          0.05060865	        -10.41956170	         -1.83574119	          1.17633089	          0.16953591	          0.86738898	          0.00496137	         35.48514271	          9.58359880	          6.82544808	        -49.55214766	         22.15434268	         -5.06623804	         11.15383464	         14.03429018	         -1.96025697	          1.74633266	        -70.71650834	          1.52621938	         14.70391712	          9.64977909	         -0.48977697	          3.36252958	         -1.58867535	          1.06056574	         -4.65458986	          4.51035183	         39.64161960	          6.24000611	         -3.45158038	          6.53976086	         24.45243482	
          0.05623184	        -10.42593599	         -1.68248793	          1.17693559	          0.18747094	          0.86680476	          0.00526358	         34.29909404	          9.59831502	          7.06720752	        -49.79801053	         22.68722583	         -5.13125292	         12.98969318	         15.70962210	         -1.79662079	          1.44146647	        -72.13140746	          2.72456423	         14.04460788	          8.94587304	         -0.54962894	          3.14145450	         -1.35227254	          2.46843720	         -4.46069083	          5.50842794	         36.02614099	          5.19752209	         -3.71857320	          5.63077415	         27.78366171	
          0.06185502	        -10.43900204	         -1.50956665	          1.16576562	          0.20531021	          0.86656021	          0.00553358	         33.06355573	          9.54572777	          7.27570270	        -49.90375357	         23.06476756	         -5.10997577	         14.91435985	         17.40323595	         -1.60500497	          1.12046626	        -73.39106706	          3.91254785	         13.36640890	          8.29037219	         -0.62071006	          2.89558107	         -1.11207949	          3.90535416	         -4.22590475	          6.54107714	         32.35694778	          4.13493133	         -3.96507013	          4.74864438	         31.18190363	
          0.06747820	        -10.45838607	         -1.31878077	          1.14421386	          0.22307417	          0.86664049	          0.00577135	         31.78096206	          9.42815509	          7.45222532	        -49.87351340	         23.29327696	         -5.00844875	         16.91945041	         19.10879054	         -1.38800244	          0.78622674	        -74.49547073	          5.08636212	         12.67524401	          7.67956836	         -0.70135328	          2.62670412	         -0.86876670	          5.34519449	         -3.95087971	          7.58666387	         28.69010394	          3.06610197	         -4.18911548	          3.90351524	         34.60632697	
          0.07310139	        -10.48360733	         -1.11237054	          1.11419729	          0.24078384	          0.86703013	          0.00597763	         30.45403739	          9.24944857	          7.59775950	        -49.71222635	         23.37516576	         -4.83615539	         18.99843412	         20.82029379	         -1.14830390	          0.44330795	        -75.44589721	          6.24150751	         11.97719480	          7.10961529	         -0.78988711	          2.33677229	         -0.62320811	          6.76047359	         -3.63906730	          8.61815226	         25.08624383	          2.00399899	         -4.38975274	          3.10160196	         38.01894221	
          0.07872457	        -10.51419004	         -0.89272082	          1.07695273	          0.25845933	          0.86771570	          0.00615352	         29.09138697	          9.01488340	          7.71079587	        -49.43408968	         23.30022283	         -4.60600943	         21.15274890	         22.53170828	         -0.88736926	          0.09834758	        -76.24343211	          7.37073007	         11.27831594	          6.57700671	         -0.88462666	          2.02793420	         -0.37562168	          8.12464650	         -3.29733615	          9.60577953	         21.60640402	          0.96036084	         -4.56652079	          2.34606956	         41.38501568	
          0.08434775	        -10.54946629	         -0.66232646	          1.03422004	          0.27612591	          0.86868198	          0.00629997	         27.69762865	          8.72921850	          7.79136055	        -49.04838071	         23.06881059	         -4.32340462	         23.37021698	         24.23584310	         -0.60766450	         -0.24293349	        -76.88853115	          8.46537824	         10.58440833	          6.07806137	         -0.98307037	          1.70228792	         -0.12683486	          9.41279507	         -2.93543826	         10.51942702	         18.30846381	         -0.05578982	         -4.71968453	          1.63797405	         44.67451321	
